<svg width="49" height="42" viewBox="0 0 49 42" fill="none" xmlns="http://www.w3.org/2000/svg">
<path d="M4.76249 30.9136L5.89058 31.5384C6.39389 30.4277 7.31372 29.5599 8.78893 29.5599C10.2815 29.5599 11.1319 30.4277 11.1319 31.6946V32.0591L7.38315 32.4235C5.69968 32.5797 4.53687 33.3607 4.53687 34.888C4.53687 36.3979 5.82116 37.3872 7.7129 37.3872C9.5005 37.3872 10.3856 36.6062 10.9236 35.7384H11.1666V37.1442H12.4509V31.764C12.4509 29.7335 11.1146 28.4318 8.85835 28.4318C6.5848 28.4318 5.38728 29.7508 4.76249 30.9136ZM5.89058 34.8707C5.89058 34.055 6.56744 33.6037 7.64348 33.4996L11.1319 33.1698V33.3087C11.1319 35.1483 9.76083 36.2591 7.92116 36.2591C6.70629 36.2591 5.89058 35.7037 5.89058 34.8707Z" fill="black"/>
<path d="M14.0054 28.6748V37.1442H15.3418V32.8574C15.3418 30.7748 16.4873 29.6988 18.136 29.6988C19.6286 29.6988 20.5658 30.4624 20.5658 32.1285V37.1442H21.8848V32.007C21.8848 29.6988 20.3402 28.5012 18.5178 28.5012C16.817 28.5012 15.9666 29.3343 15.5501 30.2021H15.3071V28.6748H14.0054Z" fill="black"/>
<path d="M23.4424 28.6748V37.1442H24.7788V32.8574C24.7788 30.7748 25.9242 29.6988 27.573 29.6988C29.0656 29.6988 30.0028 30.4624 30.0028 32.1285V37.1442H31.3218V32.007C31.3218 29.6988 29.7771 28.5012 27.9548 28.5012C26.254 28.5012 25.4036 29.3343 24.9871 30.2021H24.7441V28.6748H23.4424Z" fill="black"/>
<path d="M32.4282 26.0194C32.4282 26.6616 32.8968 27.1302 33.5389 27.1302C34.1811 27.1302 34.667 26.6616 34.667 26.0194C34.667 25.3946 34.1811 24.926 33.5389 24.926C32.8968 24.926 32.4282 25.3946 32.4282 26.0194ZM34.2158 28.6748H32.8794V37.1442H34.2158V28.6748Z" fill="black"/>
<path d="M35.3036 32.8401C35.3036 35.4434 37.0738 37.3872 39.6772 37.3872C41.9333 37.3872 42.9053 36.1723 43.478 35.0789L42.3152 34.4888C41.8986 35.426 41.1524 36.207 39.6598 36.207C37.9416 36.207 36.7962 35.0616 36.692 33.2913H43.6342V32.5971C43.6342 30.0285 41.9507 28.4318 39.5557 28.4318C37.0912 28.4318 35.3036 30.3235 35.3036 32.8401ZM36.692 32.1979C36.8829 30.6186 37.959 29.612 39.5557 29.612C41.1176 29.612 42.1763 30.5318 42.2458 32.1979H36.692Z" fill="black"/>
<path fill-rule="evenodd" clip-rule="evenodd" d="M21.3494 6.21415C22.6467 3.9781 25.8901 3.97809 27.1875 6.21415L32.0968 14.6756C32.2943 15.016 32.4241 15.3694 32.4932 15.7239C31.7765 15.4746 31.0868 15.1257 30.4414 14.6811C28.5975 13.4109 27.3612 11.5285 26.9592 9.37949L26.9586 9.37632L26.958 9.37315C26.7188 8.13116 25.6319 7.26857 24.3947 7.2815C23.1574 7.26857 22.0705 8.13115 21.8313 9.37315L21.8307 9.37632L21.8301 9.37949C21.4281 11.5285 20.1918 13.4109 18.3479 14.6811C17.6223 15.181 16.8407 15.5598 16.0277 15.8122C16.0916 15.4282 16.2261 15.0443 16.4401 14.6756L21.3494 6.21415ZM32.4802 17.0374C32.4826 17.0263 32.4849 17.0152 32.4872 17.0041C31.5231 16.7152 30.598 16.2724 29.7438 15.684C27.6403 14.2349 26.2168 12.0753 25.7542 9.60273C25.6267 8.94085 25.0497 8.48842 24.3947 8.5013C24.3745 8.5009 24.3544 8.50095 24.3344 8.50142C24.3144 8.50094 24.2943 8.5009 24.2741 8.5013C23.619 8.48841 23.042 8.94085 22.9145 9.60273C22.4519 12.0753 21.0284 14.2349 18.9249 15.6839C16.8214 17.133 14.289 17.6986 11.8005 17.259C11.4314 17.1958 11.0742 17.2832 10.7916 17.4778C10.5091 17.6725 10.3012 17.9744 10.2307 18.3404C10.0897 19.0723 10.5589 19.7467 11.297 19.8731C13.467 20.2446 15.6612 20.0329 17.6924 19.2738C17.7084 19.2829 17.7245 19.2918 17.7406 19.3006C18.721 18.9412 19.6641 18.4547 20.549 17.8451C21.7814 16.9961 22.829 15.9579 23.6617 14.7794C23.9044 14.4358 24.1289 14.0803 24.3344 13.7141C25.2446 15.3366 26.528 16.7486 28.1197 17.8451C30.8197 19.7051 34.0615 20.4192 37.2511 19.8731C37.9892 19.7467 38.4584 19.0723 38.3174 18.3404C38.247 17.9744 38.039 17.6725 37.7565 17.4778C37.4739 17.2832 37.1167 17.1958 36.7477 17.259C35.3094 17.513 33.8565 17.4314 32.4802 17.0374ZM21.2467 18.8479C20.7871 19.1645 20.3129 19.451 19.8266 19.7067H28.9627C28.4764 19.451 28.0022 19.1645 27.5426 18.8479C26.3215 18.0067 25.2634 16.994 24.3946 15.8492C23.5259 16.994 22.4678 18.0067 21.2467 18.8479Z" fill="url(#paint0_linear)"/>
<defs>
<linearGradient id="paint0_linear" x1="24.3485" y1="20.0518" x2="24.3485" y2="4.53711" gradientUnits="userSpaceOnUse">
<stop stop-color="#6525EC"/>
<stop offset="1" stop-color="#EB85B6"/>
</linearGradient>
</defs>
</svg>
